<svg width="174" height="53" viewBox="0 0 174 53" fill="none" xmlns="http://www.w3.org/2000/svg">
<path d="M1 25.5533C1 25.5533 17.1713 8.64156 30.5391 25.5533" stroke="#1188EE" stroke-width="2"/>
<path d="M59.3304 25.1993C59.3304 25.1993 43.0994 43.4764 30.1652 25.1993" stroke="#1188EE" stroke-width="2"/>
<path d="M58.5826 26.0544C58.5826 26.0544 73.5699 9.14266 86.2522 26.0544" stroke="#1188EE" stroke-width="2"/>
<path d="M115.417 26.0544C115.417 26.0544 98.4484 42.1256 85.5044 25.0521" stroke="#1188EE" stroke-width="2"/>
<path d="M115.417 26.0544C115.417 26.0544 130.81 9.14266 143.835 26.0544" stroke="#1188EE" stroke-width="2"/>
<path d="M173 26.0123C173 26.0123 156.777 43.0853 143.835 26.0124" stroke="#1188EE" stroke-width="2"/>
<path d="M1 43.0915C1 43.0915 17.1713 26.1798 30.5391 43.0915" stroke="#1188EE" stroke-width="2"/>
<path d="M59.3304 42.7375C59.3304 42.7375 43.0994 61.0146 30.1652 42.7375" stroke="#1188EE" stroke-width="2"/>
<path d="M58.5826 43.5926C58.5826 43.5926 73.5699 26.6809 86.2522 43.5926" stroke="#1188EE" stroke-width="2"/>
<path d="M115.417 43.5926C115.417 43.5926 98.4484 59.6638 85.5044 42.5903" stroke="#1188EE" stroke-width="2"/>
<path d="M115.417 43.5926C115.417 43.5926 130.81 26.6809 143.835 43.5926" stroke="#1188EE" stroke-width="2"/>
<path d="M173 43.5504C173 43.5504 156.777 60.6234 143.835 43.5505" stroke="#1188EE" stroke-width="2"/>
<path d="M1 8.51634C1 8.51634 17.1713 -8.39543 30.5391 8.51634" stroke="#1188EE" stroke-width="2"/>
<path d="M59.3304 8.16229C59.3304 8.16229 43.0994 26.4394 30.1652 8.16228" stroke="#1188EE" stroke-width="2"/>
<path d="M58.5826 9.01744C58.5826 9.01744 73.5699 -7.89433 86.2522 9.01744" stroke="#1188EE" stroke-width="2"/>
<path d="M115.417 9.01745C115.417 9.01745 98.4484 25.0886 85.5044 8.01511" stroke="#1188EE" stroke-width="2"/>
<path d="M115.417 9.01744C115.417 9.01744 130.81 -7.89433 143.835 9.01744" stroke="#1188EE" stroke-width="2"/>
<path d="M173 8.97522C173 8.97522 156.777 26.0482 143.835 8.97527" stroke="#1188EE" stroke-width="2"/>
</svg>
