<svg width="92" height="38" viewBox="0 0 92 38" fill="none" xmlns="http://www.w3.org/2000/svg">
<path fill-rule="evenodd" clip-rule="evenodd" d="M9.63966 0.735824C10.1612 0.368006 10.8618 0.368007 11.3834 0.735824C17.8802 5.3177 20.8255 10.8106 21.0111 18.6913C21.0968 22.4545 20.7299 25.9001 19.6133 28.8766C18.4681 31.855 16.4315 34.6067 13.4332 36.9304C13.0549 37.2213 12.5585 37.316 12.0976 37.1854C11.1793 36.9252 11.023 35.8504 10.5115 35.1805C9.99973 35.8508 9.84438 36.925 8.92539 37.1854C8.46451 37.316 7.96816 37.2213 7.58986 36.9304C4.5915 34.6067 2.55499 31.855 1.40971 28.8766C0.293102 25.9001 -0.0737632 22.4545 0.0119281 18.6913C0.197553 10.8106 3.1428 5.3177 9.63966 0.735824ZM12.9984 33.5359C14.8746 31.8327 16.0052 29.9742 16.8041 27.8373C17.8092 25.224 18.0991 22.3378 18.0119 18.7602C17.8672 12.6151 16.4108 8.61603 11.9984 4.903V15.7638C13.7236 16.2021 14.4984 17.8729 14.4984 19.7131C14.4984 21.5533 13.7236 23.2241 11.9984 23.6625V32.5486C11.9984 32.5486 12.8001 33.2783 12.9984 33.5359ZM7.99834 33.5359C6.12205 31.8327 5.01787 29.9742 4.21893 27.8373C3.21389 25.224 2.92391 22.3378 3.01112 18.7602C3.15557 12.6274 4.60442 8.61109 8.99834 4.903V15.7638C7.27311 16.2021 6.49834 17.8729 6.49834 19.7131C6.49834 21.5533 7.27311 23.2241 8.99834 23.6625V32.5486C8.99834 32.5486 8.18922 33.2878 7.99834 33.5359ZM10.4984 17.7384C9.39377 17.7384 8.49834 18.6225 8.49834 19.7131C8.49834 20.8037 9.39377 21.6878 10.4984 21.6878C11.6029 21.6878 12.4984 20.8037 12.4984 19.7131C12.4984 18.6225 11.6029 17.7384 10.4984 17.7384Z" fill="#1188EE"/>
<path fill-rule="evenodd" clip-rule="evenodd" d="M44.6397 0.735824C45.1612 0.368006 45.8618 0.368007 46.3834 0.735824C52.8802 5.3177 55.8255 10.8106 56.0111 18.6913C56.0968 22.4545 55.7299 25.9001 54.6133 28.8766C53.4681 31.855 51.4315 34.6067 48.4332 36.9304C48.0549 37.2213 47.5585 37.316 47.0976 37.1854C46.1793 36.9252 46.023 35.8504 45.5115 35.1805C44.9998 35.8508 44.8444 36.925 43.9254 37.1854C43.4645 37.316 42.9682 37.2213 42.5899 36.9304C39.5915 34.6067 37.555 31.855 36.4097 28.8766C35.2931 25.9001 34.9262 22.4545 35.0119 18.6913C35.1976 10.8106 38.1428 5.3177 44.6397 0.735824ZM47.9984 33.5359C49.8746 31.8327 51.0052 29.9742 51.8041 27.8373C52.8092 25.224 53.0991 22.3378 53.0119 18.7602C52.8672 12.6151 51.4108 8.61603 46.9984 4.903V15.7638C48.7236 16.2021 49.4984 17.8729 49.4984 19.7131C49.4984 21.5533 48.7236 23.2241 46.9984 23.6625V32.5486C46.9984 32.5486 47.8001 33.2783 47.9984 33.5359ZM42.9984 33.5359C41.1221 31.8327 40.0179 29.9742 39.2189 27.8373C38.2139 25.224 37.9239 22.3378 38.0111 18.7602C38.1556 12.6274 39.6044 8.61109 43.9984 4.903V15.7638C42.2731 16.2021 41.4984 17.8729 41.4984 19.7131C41.4984 21.5533 42.2731 23.2241 43.9984 23.6625V32.5486C43.9984 32.5486 43.1892 33.2878 42.9984 33.5359ZM45.4984 17.7384C44.3938 17.7384 43.4984 18.6225 43.4984 19.7131C43.4984 20.8037 44.3938 21.6878 45.4984 21.6878C46.6029 21.6878 47.4984 20.8037 47.4984 19.7131C47.4984 18.6225 46.6029 17.7384 45.4984 17.7384Z" fill="#1188EE"/>
<path fill-rule="evenodd" clip-rule="evenodd" d="M79.6397 0.735824C80.1612 0.368006 80.8618 0.368007 81.3834 0.735824C87.8802 5.3177 90.8255 10.8106 91.0111 18.6913C91.0968 22.4545 90.7299 25.9001 89.6133 28.8766C88.4681 31.855 86.4315 34.6067 83.4332 36.9304C83.0549 37.2213 82.5585 37.316 82.0976 37.1854C81.1793 36.9252 81.023 35.8504 80.5115 35.1805C79.9998 35.8508 79.8444 36.925 78.9254 37.1854C78.4645 37.316 77.9682 37.2213 77.5899 36.9304C74.5915 34.6067 72.555 31.855 71.4097 28.8766C70.2931 25.9001 69.9262 22.4545 70.0119 18.6913C70.1976 10.8106 73.1428 5.3177 79.6397 0.735824ZM82.9984 33.5359C84.8746 31.8327 86.0052 29.9742 86.8041 27.8373C87.8092 25.224 88.0991 22.3378 88.0119 18.7602C87.8672 12.6151 86.4108 8.61603 81.9984 4.903V15.7638C83.7236 16.2021 84.4984 17.8729 84.4984 19.7131C84.4984 21.5533 83.7236 23.2241 81.9984 23.6625V32.5486C81.9984 32.5486 82.8001 33.2783 82.9984 33.5359ZM77.9984 33.5359C76.1221 31.8327 75.0179 29.9742 74.2189 27.8373C73.2139 25.224 72.9239 22.3378 73.0111 18.7602C73.1556 12.6274 74.6044 8.61109 78.9984 4.903V15.7638C77.2731 16.2021 76.4984 17.8729 76.4984 19.7131C76.4984 21.5533 77.2731 23.2241 78.9984 23.6625V32.5486C78.9984 32.5486 78.1892 33.2878 77.9984 33.5359ZM80.4984 17.7384C79.3938 17.7384 78.4984 18.6225 78.4984 19.7131C78.4984 20.8037 79.3938 21.6878 80.4984 21.6878C81.6029 21.6878 82.4984 20.8037 82.4984 19.7131C82.4984 18.6225 81.6029 17.7384 80.4984 17.7384Z" fill="#1188EE"/>
</svg>
