<svg width="22" height="38" viewBox="0 0 22 38" fill="none" xmlns="http://www.w3.org/2000/svg">
<path fill-rule="evenodd" clip-rule="evenodd" d="M9.63967 0.735824C10.1612 0.368006 10.8618 0.368007 11.3834 0.735824C17.8802 5.3177 20.8255 10.8106 21.0111 18.6913C21.0968 22.4545 20.7299 25.9001 19.6133 28.8766C18.4681 31.855 16.4315 34.6067 13.4332 36.9304C13.0549 37.2213 12.5585 37.316 12.0976 37.1854C11.1793 36.9252 11.023 35.8504 10.5115 35.1805C9.99974 35.8508 9.84439 36.925 8.9254 37.1854C8.46452 37.316 7.96817 37.2213 7.58987 36.9304C4.5915 34.6067 2.55499 31.855 1.40971 28.8766C0.293102 25.9001 -0.0737632 22.4545 0.0119281 18.6913C0.197553 10.8106 3.1428 5.3177 9.63967 0.735824ZM12.9984 33.5359C14.8746 31.8327 16.0052 29.9742 16.8041 27.8373C17.8092 25.224 18.0991 22.3378 18.0119 18.7602C17.8672 12.6151 16.4108 8.61603 11.9984 4.903V15.7638C13.7236 16.2021 14.4984 17.8729 14.4984 19.7131C14.4984 21.5533 13.7236 23.2241 11.9984 23.6625V32.5486C11.9984 32.5486 12.8001 33.2783 12.9984 33.5359ZM7.99835 33.5359C6.12206 31.8327 5.01787 29.9742 4.21893 27.8373C3.21389 25.224 2.92391 22.3378 3.01112 18.7602C3.15557 12.6274 4.60442 8.61109 8.99835 4.903V15.7638C7.27312 16.2021 6.49835 17.8729 6.49835 19.7131C6.49835 21.5533 7.27312 23.2241 8.99835 23.6625V32.5486C8.99835 32.5486 8.18923 33.2878 7.99835 33.5359ZM10.4984 17.7384C9.39378 17.7384 8.49835 18.6225 8.49835 19.7131C8.49835 20.8037 9.39378 21.6878 10.4984 21.6878C11.6029 21.6878 12.4984 20.8037 12.4984 19.7131C12.4984 18.6225 11.6029 17.7384 10.4984 17.7384Z" fill="#1188EE"/>
</svg>
